<svg xmlns="http://www.w3.org/2000/svg" width="16" height="16" viewBox="0 0 16 16">
  <!-- Document outline -->
  <path d="M3 2h7l3 3v9a1 1 0 0 1-1 1H4a1 1 0 0 1-1-1V3a1 1 0 0 1 1-1z"
        fill="none"
        stroke="#6E6E6E"
        stroke-width="1.2"
        stroke-linejoin="round"/>

  <!-- Document fold -->
  <path d="M10 2v3h3"
        fill="none"
        stroke="#6E6E6E"
        stroke-width="1.2"
        stroke-linejoin="round"/>

  <!-- Lines representing text -->
  <line x1="5" y1="7" x2="11" y2="7" stroke="#6E6E6E" stroke-width="1" stroke-linecap="round"/>
  <line x1="5" y1="9" x2="11" y2="9" stroke="#6E6E6E" stroke-width="1" stroke-linecap="round"/>
  <line x1="5" y1="11" x2="9" y2="11" stroke="#6E6E6E" stroke-width="1" stroke-linecap="round"/>

  <!-- Sparkle/AI indicator - simple star outline -->
  <path d="M12 3.5l0.4 1 1 0.4-1 0.4-0.4 1-0.4-1-1-0.4 1-0.4z"
        fill="none"
        stroke="#AF9F7E"
        stroke-width="0.8"
        stroke-linejoin="round"/>
</svg>
