<svg xmlns="http://www.w3.org/2000/svg" width="20" height="20" viewBox="0 0 20 20">
  <g fill="none" stroke="#6C707E" stroke-width="1.5" stroke-linecap="round" stroke-linejoin="round">
    <!-- Document outline -->
    <path d="M4 3h8l4 4v11a1 1 0 0 1-1 1H5a1 1 0 0 1-1-1V4a1 1 0 0 1 1-1z"/>

    <!-- Document fold -->
    <path d="M12 3v4h4"/>

    <!-- Text lines -->
    <path d="M6 9h8M6 11.5h8M6 14h5"/>
  </g>

  <!-- AI sparkle indicator (golden accent) -->
  <path d="M15 3.5l0.8 2 2 0.8-2 0.8-0.8 2-0.8-2-2-0.8 2-0.8z"
        fill="none"
        stroke="#AF9F7E"
        stroke-width="1.2"
        stroke-linecap="round"
        stroke-linejoin="round"/>
</svg>
