<svg width="40" height="40" viewBox="0 0 40 40" fill="none" xmlns="http://www.w3.org/2000/svg">
  <!-- Document outline -->
  <path d="M10 6h14l8 8v20a2 2 0 0 1-2 2H12a2 2 0 0 1-2-2V8a2 2 0 0 1 2-2z"
        fill="none"
        stroke="#6E6E6E"
        stroke-width="2"
        stroke-linejoin="round"/>

  <!-- Document fold -->
  <path d="M24 6v8h8"
        fill="none"
        stroke="#6E6E6E"
        stroke-width="2"
        stroke-linejoin="round"/>

  <!-- Lines representing text/content -->
  <line x1="14" y1="20" x2="30" y2="20" stroke="#6E6E6E" stroke-width="1.5" stroke-linecap="round"/>
  <line x1="14" y1="25" x2="30" y2="25" stroke="#6E6E6E" stroke-width="1.5" stroke-linecap="round"/>
  <line x1="14" y1="30" x2="24" y2="30" stroke="#6E6E6E" stroke-width="1.5" stroke-linecap="round"/>

  <!-- Main sparkle/AI indicator (top right) -->
  <path d="M30 10l1 2.5 2.5 1-2.5 1-1 2.5-1-2.5-2.5-1 2.5-1z"
        fill="none"
        stroke="#AF9F7E"
        stroke-width="1.5"
        stroke-linejoin="round"/>

  <!-- Small sparkle accent (bottom right) -->
  <path d="M34 27l0.4 1 1 0.4-1 0.4-0.4 1-0.4-1-1-0.4 1-0.4z"
        fill="none"
        stroke="#AF9F7E"
        stroke-width="1"
        stroke-linejoin="round"/>

  <!-- Tiny sparkle accent (left side) -->
  <circle cx="8" cy="22" r="1.5" fill="none" stroke="#AF9F7E" stroke-width="1"/>
</svg>
